<?xml version="1.0" standalone="no"?>
<!DOCTYPE svg PUBLIC "-//W3C//DTD SVG 20010904//EN"
 "http://www.w3.org/TR/2001/REC-SVG-20010904/DTD/svg10.dtd">
<svg version="1.0" xmlns="http://www.w3.org/2000/svg"
 width="196.000000pt" height="196.000000pt" viewBox="0 0 196.000000 196.000000"
 preserveAspectRatio="xMidYMid meet">
<metadata>
Created by potrace 1.14, written by Peter Selinger 2001-2017
</metadata>
<g transform="translate(0.000000,196.000000) scale(0.100000,-0.100000)"
fill="#000000" stroke="none">
<path d="M76 1522 c-3 -5 8 -67 23 -138 16 -71 64 -291 106 -489 43 -198 82
-366 87 -373 8 -9 69 -12 243 -12 l233 0 15 68 c81 358 198 926 193 937 -4 12
-36 15 -175 15 l-170 0 -6 -32 c-27 -160 -69 -487 -81 -625 -4 -46 -10 -83
-14 -83 -5 0 -11 28 -14 63 -17 163 -89 653 -98 665 -12 14 -333 18 -342 4z"/>
<path d="M1185 1518 c-16 -47 -73 -293 -69 -300 3 -4 20 -8 38 -8 l33 0 -83
-327 c-46 -181 -84 -338 -84 -350 0 -23 1 -23 165 -23 l164 0 11 43 c23 88 40
153 50 195 l11 42 124 0 124 0 10 38 c43 162 61 247 57 258 -4 11 -33 14 -122
14 l-116 0 6 26 c4 15 10 39 13 55 l6 29 153 0 c85 0 154 2 154 4 0 2 16 68
36 147 19 78 33 148 30 155 -8 20 -704 21 -711 2z"/>
</g>
</svg>
